<?xml version="1.0" standalone="no"?>
<!DOCTYPE svg PUBLIC "-//W3C//DTD SVG 20010904//EN"
 "http://www.w3.org/TR/2001/REC-SVG-20010904/DTD/svg10.dtd">
<svg version="1.0" xmlns="http://www.w3.org/2000/svg"
 width="1280.000000pt" height="774.000000pt" viewBox="0 0 1280.000000 774.000000"
 preserveAspectRatio="xMidYMid meet">
<g transform="translate(0.000000,774.000000) scale(0.100000,-0.100000)"
fill="#000000" stroke="none">
<path d="M11360 7730 c-14 -4 -53 -8 -86 -9 -154 -3 -356 -61 -454 -131 -30
-22 -94 -60 -142 -85 -140 -75 -254 -193 -288 -299 -9 -29 -38 -64 -103 -125
-97 -93 -186 -194 -319 -366 -148 -191 -298 -316 -457 -380 -34 -14 -204 -57
-379 -96 -174 -38 -454 -103 -622 -144 -168 -41 -403 -94 -522 -119 -207 -44
-225 -46 -380 -46 -172 0 -464 14 -1178 55 -1135 64 -1245 62 -1660 -40 -338
-83 -445 -123 -673 -254 -250 -142 -418 -205 -742 -275 -335 -72 -507 -91
-825 -90 -372 1 -532 26 -1102 175 -168 44 -366 93 -440 109 -282 62 -587 99
-811 100 -126 0 -128 0 -152 -26 -31 -34 -31 -49 0 -90 22 -28 33 -34 97 -44
276 -44 497 -96 1238 -295 1135 -304 1534 -386 2025 -416 215 -13 217 -13 240
-92 74 -250 -29 -914 -211 -1355 -151 -366 -375 -669 -611 -825 -65 -44 -251
-137 -271 -137 -18 0 -94 -74 -112 -109 -10 -20 -50 -165 -89 -321 -144 -581
-251 -866 -404 -1072 -35 -47 -67 -99 -70 -115 -7 -35 4 -86 27 -131 23 -45
146 -173 217 -226 l57 -43 148 -6 c142 -5 150 -4 172 16 69 64 40 192 -80 353
-44 58 -46 75 -22 209 31 184 125 415 246 609 57 91 141 206 182 250 25 26 28
27 45 12 42 -38 65 -184 116 -706 39 -411 54 -517 82 -582 19 -41 24 -45 74
-56 236 -52 462 -54 571 -6 29 13 40 25 48 53 24 87 5 160 -59 221 -53 52
-120 78 -225 87 -62 6 -70 9 -87 36 -27 46 -77 210 -95 317 -21 123 -14 311
16 430 24 99 90 242 157 343 69 105 211 248 343 345 128 95 201 151 635 491
165 128 331 264 369 300 139 134 256 326 337 552 57 160 83 206 168 290 128
127 276 218 411 255 83 22 237 22 343 0 202 -43 487 -165 967 -415 450 -235
542 -281 685 -345 536 -241 942 -340 1238 -302 l67 8 20 -46 c46 -102 81 -336
100 -656 5 -102 17 -411 25 -688 22 -709 31 -792 95 -852 67 -62 97 -146 145
-405 51 -273 77 -389 96 -426 22 -44 45 -53 179 -69 47 -6 118 -15 158 -21 93
-12 275 -11 372 1 91 12 109 28 125 107 l12 58 114 -4 c128 -3 185 8 226 43
24 21 28 31 27 75 -5 140 -138 258 -318 281 -83 10 -119 25 -154 63 -13 13
-65 107 -116 209 -125 247 -131 273 -122 552 28 875 83 1636 133 1834 24 98
97 230 231 425 254 365 294 462 312 741 10 164 39 278 120 476 104 252 315
647 528 985 52 83 111 176 131 208 l36 59 45 -5 c25 -3 88 -14 140 -25 238
-50 467 -55 590 -12 52 18 89 23 182 25 110 1 120 3 144 26 53 49 121 222 176
448 l30 125 -27 20 c-56 42 -236 153 -360 221 -148 81 -155 91 -175 235 -11
74 -17 92 -53 140 -102 137 -232 248 -372 318 -95 47 -121 56 -244 82 -98 21
-158 24 -201 10z"/>
</g>
</svg>
